<svg xmlns="http://www.w3.org/2000/svg" viewBox="0 0 100 100" fill="none">
  <path d="M50 85 C 30 85 15 65 15 45 C 15 25 30 10 50 10 C 70 10 85 25 85 45 C 85 65 70 85 50 85 Z" fill="#1a4d2e" fill-opacity="0.2"/>
  <path d="M50 80 Q 30 50 50 20 Q 70 50 50 80" fill="#1a4d2e" />
  <path d="M50 80 Q 40 60 40 45 Q 40 30 50 25" stroke="#d4a53c" stroke-width="2" fill="none"/>
  <path d="M50 80 Q 60 60 60 45 Q 60 30 50 25" stroke="#d4a53c" stroke-width="2" fill="none"/>
  <path d="M50 20 L 50 45" stroke="#d4a53c" stroke-width="1"/>
</svg>
